<?xml version="1.0" encoding="utf-8"?>
<!-- Generator: Adobe Illustrator 23.0.1, SVG Export Plug-In . SVG Version: 6.00 Build 0)  -->
<svg version="1.1" id="Layer_1" xmlns="http://www.w3.org/2000/svg" xmlns:xlink="http://www.w3.org/1999/xlink" x="0px" y="0px"
	 viewBox="0 0 1000 1000" style="enable-background:new 0 0 1000 1000;" xml:space="preserve">
<style type="text/css">
	.st0{fill:#B69541;}
	.st1{fill:#322A70;}
	.st2{fill:#FDFDFC;}
	.st3{fill:#D9352C;}
	.st4{fill:#FFFFFF;}
</style>
<g>
	<path id="path3204" class="st0" d="M196.5,0h613.9v721.3c1.1,21.7-6.1,43.1-20.1,59.7c-17.4,21.5-43.8,33.8-71.4,33.5
		c-47.7,0.4-95.6,0-143.4,0.2c-27.2,1.5-51.9,16.3-66,39.6c-3,6-5.1,12.4-7.9,18.4c-6.6-22.9-22.9-43-45.3-52.1
		c-14.2-6.4-30.4-6.2-45.7-6H285c-29.6,0.7-58.2-15.6-74-40.2c-10.1-15.1-15.2-33.1-14.5-51.3c-0.2-185.5-0.2-371,0-556.6
		C196.5,110.9,196.2,55.4,196.5,0z"/>
	<path id="path3206" class="st1" d="M213.4,13.2c127.1-0.2,254.2-0.2,381.5,0c66.2,0.2,132.1-0.4,198.5,0.2
		c-0.2,124.4-0.2,248.8,0,373.2c-45.3,0.6-90.8,0.2-136.2,0.4c-147.9-0.2-295.6,0.4-443.7-0.2L213.4,13.2z"/>
	<path id="path3226" class="st1" d="M674.8,165.6c3.9,1.9,7.9,3.4,11.6,5.7c1.9,3.1,3.4,6.5,4.5,10c1.5,4.1-1.9,7.7-5.1,9.2
		c4.1-6.4-1.3-12.2-4.1-18c-2.3,0.2-4.5,0.4-6.8,0.4C675,170.5,675,168,674.8,165.6L674.8,165.6z"/>
	<path id="path3228" class="st2" d="M413.4,182.7c3.4-2.3,6.8-4.5,10.3-7c11.3,11.3,22.6,22.9,34,34.4c-2.3,3.4-4.5,6.8-6.8,10.3
		C438.4,207.9,425.6,195.3,413.4,182.7z"/>
	<path id="path3230" class="st2" d="M582.7,176.1c2.5,2.1,4.8,4.4,7,6.8c-11.9,13-25,25-37.2,37.8c-2.4-3.4-4.7-7-6.9-10.7
		C558.1,198.6,570.5,187.3,582.7,176.1L582.7,176.1z"/>
	<path id="path3234" class="st2" d="M382.8,257.6c18,0,36.5,0,54.5-0.2c0.2,3.4,0.2,6.8,0.4,10.3c-18.2,0.4-36.4-0.2-54.9,0.2
		C383,264.5,383,261.1,382.8,257.6z"/>
	<path id="path3236" class="st2" d="M569,257.6c17.3-0.2,34.4-0.2,51.7,0V268H569V257.6z"/>
	<path id="path3238" class="st2" d="M450.6,304.8c2.3,2.4,4.7,4.7,7.2,7.1c-11.7,12.2-22.6,25-34,37.4c-3.4-2.3-6.8-4.5-10.5-6.8
		C425.3,329.8,438.6,317.8,450.6,304.8z"/>
	<path id="path3240" class="st2" d="M545.5,311.8c2.2-2.2,4.7-4.5,6.9-6.8c12.6,12.2,24.8,25,37.4,37.2c-2.2,2.6-4.5,5.1-6.9,7.5
		C570.5,336.9,557.9,324.3,545.5,311.8z"/>
	<path id="path3242" class="st2" d="M497.8,342.8c3.6-0.2,7.1-0.2,10.7-0.2v37.6c-3.6,0-7.1,0-10.5-0.2
		C497.9,367.6,497.9,355.2,497.8,342.8z"/>
	<path id="path3244" class="st1" d="M213.4,400.1c91.9-0.2,183.6,0,275.5,0c2.1,0.4,6.8-0.9,5.7,2.8V824
		c-11.8-10.9-26-18.6-41.5-22.6c-15.8-4.5-32.5-3-48.9-3.2H283.4c-19.7-0.1-38.5-8.4-51.9-22.9c-11.7-13.6-18.2-30.9-18.1-48.9
		V400.1z"/>
	<path id="path3246" class="st1" d="M512,400.1c93.6,0,187.6-0.4,281.1,0.2c-0.2,108.6,0,217.4-0.2,326c0.1,19.5-8,38.1-22.2,51.5
		c-13.8,12.6-31.7,19.7-50.4,20.1c-48.9,0.2-97.9-0.2-146.8,0.2c-22.9,0.6-44.7,10.9-61.6,26.1V400.1z"/>
	<path id="path3248" class="st0" d="M345.7,461.5l20.3,73.9l30.6-58.5l3.8,75.2l30.3-35.7c0,0-14.2,74.9-27.1,97
		c-10.1,19.8-24.2,40.8-47.7,45.8c0.2,7.9,0,15.4,0.2,23.3c-5.7,0-11.3,0.2-17,0c0-8.1,0.2-15.8-0.4-23.9
		c-16.3-2.8-28.6-15.4-37.6-28.3c-14.9-22.9-23.1-49-29.1-75.5l-8.1-39.5l30.8,37c0,0,3.7-65.6,3.6-76.9
		c3.9,5.3,30.1,60.1,30.1,60.1L345.7,461.5z"/>
	<path id="path3250" class="st2" d="M346,493.7c2.5,3.6,15.4,64.1,18.8,96.8c0.2,4.5,1.9,9.8-1.3,13.7c-6.4,9.8-11.6,20.3-17.9,30.1
		c-3.8-10.4-8.7-20.3-14.6-29.7c-3.4-4.5-1.7-10.5-1.1-15.4C332.4,563.8,346,493.7,346,493.7L346,493.7z"/>
	<path id="path3252" class="st2" d="M303.6,502.9l21.2,46.8c0,0-2.5,26.3-3.6,39.5c-6-8.8-11.7-18.2-19.6-25.5
		C301.8,562.5,303.6,502.9,303.6,502.9L303.6,502.9z"/>
	<path id="path3254" class="st2" d="M390.1,503.9l2.8,59c-6.9,8.5-13.3,17.4-19.2,26.7c-0.6-11.6-3-22.9-3.6-34.6
		C369.2,546.7,390.1,503.9,390.1,503.9L390.1,503.9z"/>
	<path id="path3256" class="st0" d="M605.4,527.9c29.1-22.9,75.2-19.8,101.5,6.4c22,19,44,37.8,66,56.6c2.8,2.6,7.1,3.6,9.2,6.8
		c-9.4,4.9-16.5,13.2-25,19.6c-18.2,16.2-37,31.6-55.3,47.7c-14.5,12.4-34.2,17.8-53.2,17c-19.8,0.2-39.1-8.8-53.9-21.6
		c-17-14.6-34.4-29.3-51.5-44.1c-7.1-6.4-14.8-12-21.2-19.2c9-8.8,19.4-16,29.1-24.2c17.8-15.4,36.5-29.7,54.3-45.1L605.4,527.9z"/>
	<path id="path3258" class="st2" d="M616.7,532.2c19.4-11.8,43.5-12.8,63.7-2.5c10.3,4.9,18,13.5,26.9,20.5
		c19.5,15.6,39.1,31.6,58.8,47c-20.1,18.1-40.8,35-61.3,52.4c-14.4,13.5-33,21.5-52.6,22.6c-21,0.4-41.2-9.6-56.2-23.9
		c-19.8-17-39.3-34.2-59.8-50.6c2.2-2.5,4.6-4.8,7.3-6.8c19.2-15.2,37.8-30.6,56.8-45.8C605.4,540.5,610.9,536.1,616.7,532.2
		L616.7,532.2z"/>
	<path id="path3260" class="st1" d="M641,540.5c30.6-6,62,18,67.1,48.1c5.7,31.1-20.1,63-51.3,66.2c-16.2,1.8-32.3-4.1-43.6-15.8
		c-15.7-16.3-20.9-40-13.5-61.4C606.2,559.3,622,544.3,641,540.5L641,540.5z"/>
	<path id="path3262" class="st2" d="M416.6,546.8c-5.7,24.6-13.2,49.3-25.9,71.2c-9.2,15-21.6,31.1-40.2,33.3
		c1.3-2.1,2.4-4.4,3.2-6.8c6-20.3,17.9-38,29.2-55.7c10.3-14.8,21.7-28.9,34-42.1L416.6,546.8z"/>
	<path id="path3264" class="st2" d="M278.5,547.8c20.5,23.7,38.8,49.1,54.7,76.1c5.3,8.6,8.1,18.4,11.8,27.8
		c-17.9-2.4-30.4-16.7-39.5-31.1C292.2,598.4,284.1,573.2,278.5,547.8L278.5,547.8z"/>
	<path id="path3270" class="st2" d="M267.2,699.5c6.4,0.3,12.7,1.8,18.6,4.5c5.1,3,11.4,3.2,16.7,0.6c9.8-5.1,22-7,32.3-1.9
		c4.7,2.8,10.2,4,15.6,3.4c4.7-0.2,8.7-3.2,13-4.7c5.2-1.6,10.7-2.2,16.2-1.7c2.2,0.2,4.5,0.7,6.6,1.3c3.4,1.3,4.3,2.4,7.5,3.6
		c2.6,0.7,5.2,1,7.9,0.9c4.3-0.1,8.6-0.9,12.6-2.6c4.1-1.8,8.5-3.1,13-3.8c0,3.2,0.2,6.8,0.2,10.2c-1.5-0.2-3.1-0.1-4.5,0.4
		c-1.5,0.4-2.9,0.9-4.3,1.5c-3.3,1.7-6.6,3.2-10.1,4.3c-4,1.2-8.3,1.3-12.4,0.2c-2.9-0.7-5.8-1.7-8.5-3c-2-0.8-3.9-1.8-5.7-3
		c-2.3-0.6-4.7-0.8-7.1-0.6c-2.4,0.2-4.8,0.8-7,1.9c-5.6,3.5-12.2,5.4-18.8,5.4c-4.3-0.5-8.6-1.4-12.7-2.8c-4.1-1.5-3.9-2.1-7.3-3
		c-2.8-0.8-9.2-2.6-13.5-0.2c-1.1,0.8-2.3,1.5-3.6,2.1l-3.4,1.7c-2.8,1.1-5.7,1.8-8.7,2.1c-4.3,0.4-8.7,0.2-13-0.6
		c-6.8-0.9-12-6.2-19.2-5.7C267.3,706.4,267.1,702.9,267.2,699.5L267.2,699.5z"/>
	<path id="path3272" class="st0" d="M107,786.5c0,0,28.6,4,37.6,6c12.1,2.6,24.1,5.7,35.9,9.3c13.9,4.4,28.6,10.6,37.5,22.7
		c3.4,4.3,5,9.8,4.6,15.2c-0.7,6.4-4.8,8.7-8.5,12.9c6.1,2.8,14.2,3.6,20.8,5.1c7.1,1.6,14.3,3.2,21.4,4.7c14.3,3.1,28.6,5.9,43,8.5
		c28.8,5.2,57.7,9.5,86.8,12.6c26.7,2.9,53.5,4.8,80.4,5.7c15.6-0.4,31.4,0.9,47,0.4c15.6-0.6,31.6,0.6,47.3-1.3
		c66.8-3.6,133.2-12.8,198.5-27.4c11.7-2.4,22.9-5.8,34.8-8.1c-2.3,0.5-6.8-6.2-7.8-7.9c-2.1-3.7-2.9-7.9-2.4-12.1
		c1.2-8.2,8.5-14.2,15.1-18.5c14.3-9.5,30.4-13.9,47-17.7c16.6-3.8,34.3-6.1,51.4-9.2c-2.8,2.8-1.8,9.2-3,12.8
		c-4.4,12.9-11.4,24.8-20.5,34.9c-7.7,8.3-16.8,15.3-26.9,20.5c6.8,2.1,31.6,10.7,42.7,34.8c2.5,5.1,4.2,10.7,4.9,16.4
		c-20.7,4.5-41.2,10-61.3,16.7c-5.4,1.9-20.5,5.7-26.1,7c0,11.1,0,22.4,0.2,33.4c-7.9,1.1-15.4,3.2-23.1,4.9
		c-73.9,16.9-149.2,27.4-225,31.4H443.5c-80.6-4.4-160.5-16.1-239-35c-2.5-0.6-5.1-0.9-7.5-1.3c-0.2-11.1-0.2-22.3,0-33.4
		c-20.4-8.2-41.5-14.5-63-19c-10.9-2.2-21.6-3.9-31.4-5.1c0.5,0,12.3-19.3,13.8-21.2c10.6-12.7,23.9-22.8,39-29.6
		c-19.3-13.3-38.8-32.2-46.4-55C108,795.8,107.3,791.2,107,786.5z"/>
	<path id="path3274" class="st3" d="M119.3,798.7c17.3,1.9,34.4,5.6,51,10.9c15.2,6.2,31.7,11.3,42.8,24.1c0.8,9.8-9.6,13.3-17,16.2
		c-0.6,23.3,0,46.4-0.2,69.9c-6.7-1.9-13.3-4.1-19.8-6.8c-18.6-6.8-37.8-12.6-57.7-13c6-9.8,13.8-18.5,22.9-25.5
		c12.6-9.4,31.8-17,31.1-18.4c-0.6-1.4-22.4-15.4-33.3-26.9C130.7,820.4,123.9,810,119.3,798.7L119.3,798.7z"/>
	<path id="path3276" class="st3" d="M836.6,809.7c15.6-5,31.7-8.7,47.9-10.9c-5.2,11.7-12.2,22.5-20.9,32
		c-10.1,11.2-22.3,20.2-35.9,26.7c0.1,0,0.2,0.1,0.2,0.2c0,0,0,0,0,0h-0.2c13,3.3,25,9.5,35.3,18c8.3,6.9,15.3,15.2,20.7,24.6
		c-1.6-2.8-24.1,3.8-27.2,4.5c-16.8,3.9-32.5,10.4-48.9,15.4c-1.7-23.1,0.2-46.6-1-69.9c-2.4-1.7-5-3.2-7.6-4.6
		c-2.8-1.8-4.8-4.6-5.7-7.8c-0.9-7.5,11.1-13.3,16.3-16.4C818.3,816.6,827.3,812.6,836.6,809.7L836.6,809.7z"/>
	<path id="path3278" class="st3" d="M206.7,882.7c0.2-6.8-0.6-13.5,0.8-20.3c72,17.9,145.5,29.6,219.5,34.8
		c49.4,3.1,98.9,3.1,148.3,0.2c74.6-4.5,148.3-17,220.8-34.6c0.8,31.6-0.4,63.1,0.6,94.7C718.4,974.7,639,985.7,559,990.1
		c-18.1,1-35.9,0.6-54,1.5c-100.3,0-200.3-13.5-298.4-34C206.3,932.7,206.7,907.7,206.7,882.7z"/>
	<path id="path3288" class="st3" d="M549.2,950.3c4.8-4.1,10.2-7.4,16-10c0.7,7.4,0.8,14.9,0.6,22.4
		C561.5,957.3,555.3,953.9,549.2,950.3z"/>
	<path id="path3290" class="st3" d="M437.4,947.7c5.3-2.1,10.5-7.1,16.3-5.8c0.4,6.8-0.2,13.9,0.4,20.7
		C448.9,957.5,443.1,952.4,437.4,947.7L437.4,947.7z"/>
	<path id="path3224" class="st0" d="M477.6,160.5c4.3-4.3,8.8-9,13.4-13.9c8.8-9.4,16.7-19,23.7-27.8c-1.5,1.9,0,10.2,0,12.7
		c-0.1,5.8,0,11.6,0.5,17.4c2,15.3,6.4,30.2,13,44.1c3.1,6.9,6.3,13.8,9.5,20.7c4.4,9.6,8.5,17.8,8.8,28.6
		c0.7,26-21.1,43.3-30.5,65.5c-4.7,11-3.1,21.1-3,32.6c-14.2-3.4-26.6-15.4-35.4-26.5c-9.8-12-15.5-26.9-16-42.5
		c0-12.5,4.9-24.1,5.9-36.5c0.6-10.9-0.1-21.9-2.2-32.7C462.8,186.1,465.8,172.3,477.6,160.5z"/>
	<path id="path3224-2" class="st3" d="M480.1,178.6l0.6-1.6c5.9-14.2,17.4-25.3,27.6-36.4c-2.2,2.5-1.7,10.7-1.7,13.8
		c0.1,5.4,0.8,10.7,2.1,15.9c4,16.3,12.7,30.9,19.8,45.9c7.2,15,12,31.8,3.2,47.4c-11,19.6-29.5,38.8-27,62.9
		c-5.3-4.2-10.1-9-14.5-14.2c-3.1-3.9-5.9-8-8.5-12.2c-5.9-9-8.8-19.5-8.5-30.3c0.5-15.2,6.5-29.8,5.7-45.1
		C478.1,209.4,474.5,193.6,480.1,178.6z"/>
	<path id="path3270-2" class="st2" d="M266.1,674.8c6.4,0.4,12.7,2,18.6,4.6c5.1,3,11.4,3.2,16.7,0.6c10-5.1,22-7.1,32.1-1.7
		c4.8,2.6,10.3,3.8,15.8,3.4c4.9-0.4,8.5-3.4,13-4.7c5.2-1.6,10.7-2.2,16.1-1.7c2.2,0.2,4.3,0.7,6.4,1.5c3.4,1.1,4.3,2.5,7.3,3.6
		c2.5,0.9,5.2,1.3,7.9,1.1c4.4-0.2,8.7-1.1,12.8-2.8c4.3-1.9,8.8-3.1,13.4-3.8c0,3.4,0,6.8,0.2,10.1c-1.5,0-3,0.1-4.5,0.4
		c-1.5,0.4-2.9,0.9-4.3,1.5c-3.4,1.7-7.9,3.6-10.1,4.5c-4,1.2-8.3,1.4-12.4,0.4c-3-0.6-5.9-1.7-8.5-3.2c-2.6-1.1-4.3-2.2-5.7-2.8
		c-2.3-0.6-4.7-0.8-7.1-0.6c-2.4,0.3-4.8,0.9-7.2,1.7c-5.7,3.6-12.3,5.4-19,5.3c-4.3-0.4-8.6-1.5-12.6-3.2c-3.9-1.5-3.9-1.9-7.3-3.2
		c-2.8-0.8-9.2-2.4-13.5-0.2c-1.2,0.7-2.4,1.4-3.7,1.9c-0.2,0-1.9,0.9-3.4,1.7c-2.8,1-5.6,1.8-8.5,2.3c-4.5,0.4-9,0.2-13.4-0.6
		c-6.8-1.1-12-6.2-19.2-5.7C266.1,681.6,266.1,678.2,266.1,674.8L266.1,674.8z"/>
	<path id="path39" class="st4" d="M690.9,575h-11.3v63.2l-2.1-1.5c-2.8-10.3-7.5-18-14.7-22.6c-1.7,2.5-3.9,4.6-6.6,6
		c-3,1.6-6.3,2.3-9.6,2.3c-2.1-0.1-4.3-0.6-6.2-1.5c-2.3-0.8-4.4-2-6.2-3.6c-1.9-1.7-3.9-3.4-6-5.7c-1.9-2.3-3.7-4.8-5.3-7.3
		c-2-3.7-3.6-7.6-4.7-11.7c-1.2-4.7-2.1-9.4-2.8-14.2l3.6,1.5c1,4.6,2.3,9.1,3.9,13.5c1.5,3.7,3.6,7.3,6,10.5c2.1,2.7,4.7,5,7.7,6.8
		c2.5,1.6,5.5,2.5,8.5,2.5c7.2,0,11.5-1.9,14.2-6.2c1.5-2.7,2.3-5.7,2.3-8.8c0.1-1.1-0.1-2.2-0.4-3.2c-0.4-1.7-1.2-3.3-2.3-4.7
		c-0.7-1.1-1.5-2.2-2.4-3.2c-1.1-0.9-2.4-1.6-3.8-2.1c-1.2-0.2-2.5,0-3.6,0.6c1.2,1.3,2,2.9,2.1,4.7c0,1.3-0.4,2.7-1.1,3.8
		c-0.8,1.2-1.8,2.3-3,3.2c-2,1.7-4.6,2.3-7.1,1.7c-2.5-0.4-4.8-1.8-6.2-3.9c-0.7-1.4-1.1-3-1.1-4.5c0-1.7,0.5-3.3,1.5-4.7
		c0.8-1.4,1.9-2.7,3.2-3.8c2.9-2.2,6.5-3.4,10.1-3.6c1.7,0.1,3.3,0.3,4.9,0.7c2.3,0.9,4.5,2.2,6.4,3.8c2.1,1.7,4,3.7,5.5,6
		c2,3.4,3,7.4,2.8,11.3c0,3.1-0.5,6.2-1.5,9.2l7.9,7.1v-41.2h-59.3l-6-5.8h76.4L690.9,575z"/>
	<path id="path41" class="st4" d="M270.2,905c-2.8,12-4.3,18.1-7.3,29.9c0.4,2,1.9,3.5,3.9,3.9c3.4,0.5,6.9-0.6,9.6-2.8
		c2.9-1.9,5.1-4.7,6.4-7.9c-0.6,0-1.1-0.1-1.7-0.2c-0.6-0.2-1.3-0.5-1.9-0.7c-0.6-0.4-1.2-0.9-1.7-1.5c-0.6-0.5-0.9-1.3-0.9-2.1
		c-0.2-0.7-0.2-1.5,0-2.3c0.2-1.6,1.2-3,2.6-3.8c1.4-0.8,3-1.1,4.5-0.7c2.7,0.5,4.8,2.5,5.7,5.1c0.2,1.1,0.6,2.3,1,3.8
		c0,1.3,0,2.6-0.2,3.9c-1.2,4.8-4.2,8.9-8.5,11.3c-3.9,3.3-9.1,4.6-14.2,3.6c-2.7-0.4-5.1-2-6.6-4.3c-1.4-2.4-2-5.2-1.7-7.9
		c2.8-11.5,4.3-17,7.2-28.8c-2.3-0.4-4.6-1-6.8-1.7c-1.2-1.7-2.2-3.6-3-5.5c15.8,3.9,23.7,5.8,39.6,9.4c1.5,2.3,2.3,3,3.8,5.4
		C287.7,909.2,281.7,907.8,270.2,905L270.2,905z"/>
	<path id="path43" class="st4" d="M308.2,912.7c-3.6,18-5.3,27-9,45.3c-1.4-1.7-2.6-3.5-3.8-5.4c2.6-13,4-19.2,6.6-32.1
		c0.2-1.2,0.2-2.4,0-3.6c-0.3-1.2-0.9-2.2-1.7-3c-0.9-0.9-1.7-1.7-2.8-2.6c-1.2-0.6-2.5-1.1-3.8-1.5c-1.3-1.7-2.5-3.5-3.6-5.4
		c0.9,0.2,1.7,0.3,2.6,0.4c1.2,0.3,2.4,0.5,3.6,0.6c1.9,0.6,3.6,1.7,4.9,3.2c1.5,1.8,2.4,4,2.6,6.4c0.2-0.8,0.2-1.9,0.6-3.4
		c0.4-1.5,0.2-2.8,0.6-4.5c0.4-1.5,0.5-3,0.6-4.5c0-1,0.2-2,0.6-3c0.6,0.5,1.1,1.1,1.5,1.7c0,1.4,0,2.8,0.2,4.1c0.2,1,0.5,2.1,0.9,3
		c0.4,0,0.6,0.2,0.9,0.2s0.8,0.2,1.1,0.2c0.6,0.9,1.1,1.9,1.7,3l1.1,2.2c-1-0.4-2.1-0.6-3.2-0.7C309.6,913.1,308.9,913,308.2,912.7
		L308.2,912.7z"/>
	<path id="path45" class="st4" d="M347.1,920.6c-0.4,1.5-0.4,1.9-0.6,3c5.1,0.5,9.6,3.7,11.8,8.3c2.5,3.8,3.5,8.4,2.8,13
		c-0.3,1-0.7,2-1.1,3c-0.6,0.9-1.3,1.8-2.1,2.6c-0.7,0.7-1.5,1.2-2.4,1.5c-1.1,0.2-2.1,0.2-3.2,0.2c-0.9,0-1.7-0.3-2.3-1
		c-0.8-0.2-1.4-0.8-1.7-1.5c-0.5-0.5-0.9-1.1-1.1-1.9c-0.2-0.7-0.2-1.5-0.2-2.3c0.1-1.3,0.8-2.6,1.9-3.4c1.3-0.9,2.8-1.2,4.3-0.9
		c1,0.1,1.9,0.5,2.6,1.1c0.6,0.6,1.5,1.1,1.7,2.1c0.2-0.2,0.2-0.6,0.6-0.9c0.4-3.1-0.6-6.3-2.6-8.6c-2.5-3.1-6.2-5.1-10.2-5.5
		c-2.2,14.7-3.4,21.8-5.7,36.5c-0.3-0.1-0.6-0.3-0.7-0.6c-0.4-0.2-0.6-0.5-0.6-0.9c-0.7-2.7-1.7-5.4-2.8-7.9
		c-1.1-2.4-2.4-4.6-3.9-6.8c-3.2-4.4-7.7-7.7-13-9.4c-1.9-3.4-3-5.4-5.1-8.6c9.1-4.4,18.8-7.3,28.8-8.6c0.1-1.2,0.3-2.4,0.6-3.6
		c-11.8-2.1-17.9-2.8-29.3-5.5c-0.7-1.1-1.7-2.3-2.4-3.4c-0.4-0.7-0.8-1.3-1.3-1.9c9.4,1.9,19,3.8,28.9,5.5c10,1.7,19,3,28,4.1
		c1.7,1.9,2.6,3,4.3,5.1C363,923.1,355,922.2,347.1,920.6L347.1,920.6z M340.9,929.6c-2.8,0.6-6,1.5-9,2.3c-3,0.8-6.2,2.2-10,3.6
		c6.8,3.9,12,10.1,14.7,17.5h0.2C338.6,943.7,339.4,939.2,340.9,929.6z"/>
	<path id="path47" class="st4" d="M380,924.6l-5.7,46c-1.4-1.6-2.7-3.3-3.9-5.1c1.7-13,2.6-19.5,4.3-32.5c0.1-1.2,0.1-2.4-0.2-3.6
		c-0.4-1.2-1.1-2.2-2.1-3c-0.9-0.9-1.9-1.7-3-2.2c-1.1-0.5-2.2-0.8-3.4-1l-0.6-2.8l-0.6-2.3c0.7,0,1.4,0.1,2.1,0.2
		c2.4,0.3,4.6,1.3,6.4,2.8c1.6,1.7,2.6,3.9,2.8,6.2c0-0.9,0.2-2.1,0.2-3.4c0-1.3,0.4-2.8,0.4-4.7c0-1.9,0.2-3.4,0.2-4.5
		c0-1.1,0.2-2.3,0.2-3.4c0.4,0.5,1,1.1,1.5,1.5c-0.2,2.5,0.6,5.1,2.1,7.1c1.3,0.1,2.6,0.3,3.9,0.6c1.7,1.9,2.3,2.8,4,4.7
		C385.2,925.2,383.5,925,380,924.6L380,924.6z"/>
	<path id="path49" class="st4" d="M464.3,922.5c-1.5-1.5-3.1-2.8-4.9-4c-1.7-1.5-3.6-2.8-5.7-3.9c-1.9-1.2-4-2.2-6.2-2.8
		c-2.2-0.7-4.5-1-6.8-1.1c-3.7,0-7.3,1-10.5,2.8c-3.9,2.3-6.4,4.9-6.8,7.9c0.4,1.5,0.9,2.9,1.5,4.3l1.1,0.2c0.6,0.1,1.3,0.2,2,0.2
		c2.5,0.9,4.7,2.6,6.1,4.9h-2.8l-2.4-0.3l-2.6-0.2c-1.5,18.4-2.1,27.6-3.4,45.8c-1.7-1.9-2.8-2.8-4.5-4.7
		c1.5-16.7,1.9-25.2,3.4-41.7c-2.8-0.2-4.3-0.2-7.1-0.6c-1.7-2.1-2.4-2.8-3.9-4.9c4.9,0.6,7.3,0.6,12,1.1c-1.1-1.1-1.7-1.9-2.8-3
		c-1-0.9-1.6-2.2-1.5-3.6c0.2-3.8,2.6-6.8,7.1-9.6c3.5-2.4,7.6-3.7,11.8-3.8c9.2,0.6,18,5.7,26.5,14.7
		C464,921.1,464.1,921.8,464.3,922.5L464.3,922.5z"/>
	<path id="path51" class="st4" d="M466.7,932.5c-0.5,18.6-0.7,28-1.7,46.6c-0.9-0.9-1.8-2-2.6-3c-0.1-0.5-0.3-1-0.6-1.5
		c-0.4-1-0.9-2-1.5-2.8c-0.7-1.6-1.7-3-2.8-4.3c-1-1.4-2.1-2.8-3.4-4c-4.5-3.9-10-6.3-15.8-7.1l-5.7-8.5c9.1-5.3,18.8-9.5,28.9-12.4
		v-3c-12.4-0.6-19-0.9-31.1-1.7c-1.7-2.1-2.6-2.8-4.3-4.9c5.4,0.5,10.9,0.8,16.4,1.2c9.9,0.6,19.6,1,28.9,1.2l1.6,1.9
		c0.7,0.8,1.4,1.7,2,2.5h-3.6C469.9,932.6,468.3,932.6,466.7,932.5z M461.9,943c-3.1,1-6.2,2.1-9.2,3.4c-3,1.3-6.4,3-10,4.7
		c7.7,3.2,14.2,8.9,18.4,16.2C461.3,957.7,461.7,952.6,461.9,943L461.9,943z"/>
	<path id="path53" class="st4" d="M516.9,932.7c0.4,18.6,0.6,28,0.7,46.6c-0.8-0.7-1.7-1.4-2.5-2.2c-0.8-0.7-1.5-1.4-2.2-2.2
		c0-4.6,0-9.3-0.1-13.9l-0.2-13.7v-0.9c-0.3-2.5-1.3-4.9-3-6.8c-1.3-2.2-3.5-3.6-6-4c-1.2-0.1-2.4,0.4-3.4,1.1
		c-1.1,0.9-1.7,1.7-1.7,2.6c4.9,3.4,7.3,5.8,7.3,8.3c0.1,1.7-0.5,3.3-1.7,4.5c-1.2,1.3-2.8,2.1-4.5,2.6c-1.6,0-3.1-0.5-4.3-1.5
		c-1.4-0.9-2.5-2.3-2.8-3.9c-1,3.4-4.2,5.6-7.7,5.5c-1.7,0.1-3.3-0.6-4.3-1.9c-1.1-1.3-1.6-2.9-1.4-4.6c0-1,0.2-2.1,0.6-3
		c0.5-1,1-1.9,1.7-2.8c0.7-0.9,1.6-1.7,2.6-2.3c1.1-0.6,2.1-1.1,3-1.5c-1.8-2.8-4.5-4.9-7.7-5.8c-1.8-0.5-3.8-0.6-5.7-0.3l-1.9-2
		c-0.8-0.9-1.7-1.7-2.5-2.6c2.7,0,5.4,0.1,8,0.5c3.2,0.1,6.3,1,8.9,2.8c0.7,0.6,1.3,1.2,1.9,1.9c1,1.4,1.7,3,2.1,4.6
		c2.8-5.8,6.8-9,11.7-9c1.7,0,3.9,1.5,6.4,4.5c2.1,2.1,3.8,4.5,5,7.2c-0.2-7.9-0.6-11.9-1.1-19.6c1.1,1.1,1.7,1.5,2.8,2.6
		c0.2,1.9,1.3,3.5,3,4.3c1,0.5,2.2,0.6,3.3,0.3c0.6,1.4,1.4,2.7,2.2,3.9l-3.8,0.2L516.9,932.7z M517.9,986c-2.3-1.1-4.2-2.7-5.7-4.7
		c-1.2-2-2.8-3.7-4.7-5.1c-1.4-0.9-2.9-1.5-4.5-1.7c-1.9-0.2-3.6-0.5-5.7-0.7c-2.1-2.6-2.8-3.8-4.5-6.2l10.5-6.8l9.6-5.8l4.6,4.9
		L517.9,986z M512.8,962c-1.5,0.9-3,1.7-5.1,3s-4.5,2.6-7.1,4.3c2.2,0.6,4.4,1.5,6.4,2.6c2.2,1.4,4.2,3.2,6,5.1
		C513.1,971,513.1,968.2,512.8,962L512.8,962z"/>
	<path id="path55" class="st4" d="M570.9,920.6c-1.5-1.1-3.2-2.2-5.1-3.4c-1.9-1.1-4-2.3-6.2-3.4c-2.1-1-4.3-1.8-6.6-2.2
		c-2.3-0.2-4.5-0.6-6.8-0.6c-3.7,0.3-7.2,1.7-10.1,3.9c-3.6,2.6-5.8,5.7-5.8,8.7c0.6,1.5,1.3,2.9,2.1,4.3l2.8-0.2h2.8
		c0,0.4,0.1,0.9,0.2,1.3c0.1,0.4,0.3,0.7,0.5,1c0,0.4,0.2,0.8,0.4,1.1c0.2,0.3,0.4,0.5,0.6,0.8h-1.9l-3.6,0.2
		c0.6,18.4,0.8,27.6,1.5,46.2c-2.1-1.7-3.2-2.6-5.1-4.3c-0.6-16.7-0.6-25.2-1.1-41.7c-2.8,0-4.3,0-7.1,0.2c-1.6-1.4-3.1-2.8-4.5-4.3
		c4.9,0,7.3,0,12.2-0.2c-1.5-1.1-2.1-1.7-3.4-2.8c-1.1-0.8-1.8-2.1-2.1-3.4c0.2-4.1,2.4-7.9,5.8-10.1c3.1-2.8,7.1-4.6,11.3-4.9
		c9.4-0.2,18.6,3.4,28,11.8C570.3,919.2,570.7,919.9,570.9,920.6L570.9,920.6z"/>
	<path id="path57" class="st4" d="M575.3,930.2c1.5,18.6,2.1,28,3.4,46.2l-2.8-2.8c-0.3-0.5-0.6-1-0.8-1.5l-1.7-2.6
		c-2.1-2.8-4.5-5.3-7.3-7.3c-4.8-3.3-10.5-5.2-16.4-5.4c-2.4-3-3.9-4.7-6.4-7.9c8.6-6.2,17.9-11.4,27.6-15.6c0.1-1,0-2-0.4-3
		c-4.1,0.4-8.3,0.6-12.4,0.7c-6.4,0.4-12.8,0.6-19,1c-0.6-0.6-1.3-1.1-1.9-1.7c-0.9-0.8-1.7-1.6-2.4-2.4c6.8-0.2,13.9-0.4,21.2-1
		c7.3-0.6,14.7-0.9,21.6-1.7c1.9,0.8,3.8,1.8,5.5,3c0.6,0.4,0.9,0.7,1.3,0.9C581,929.6,578.9,929.8,575.3,930.2L575.3,930.2z
		 M571.6,940.9c-3.1,1.3-6,2.8-8.8,4.5c-3,1.7-6.2,3.7-9.2,5.8c8,2.5,14.9,7.4,19.8,14.2C572.7,955.6,572.5,950.5,571.6,940.9
		L571.6,940.9z"/>
	<path id="path59" class="st4" d="M592.3,928.7c0.8,8.3,1.1,12.4,2.1,20.5c1.5-1.9,3.2-3.6,4.9-5.4c1.7-1.9,3.6-3,5.3-4.7
		c1.7-1.7,3.6-2.8,5.3-3.9c1.6-1,3.2-2,4.9-2.8c3.4,1.9,4.7,2.8,8.1,4.5c-3,7.1-4.4,14.7-4,22.4c0.7,4.5,1.8,8.9,3.4,13.2
		c-1.5-0.6-2.1-0.6-3.4-1.1c-1.5-3.9-2.4-7.5-3.4-10.7c-0.8-2.6-1.3-5.2-1.7-7.9c-0.5-3.9-0.4-7.9,0.2-11.8c-4,2-7.5,4.8-10.3,8.3
		c-3,3.3-5.4,7.2-7.1,11.3l-7.2-5.7c-0.9-10.5-1.5-15.6-2.2-25.9c-1.6,0.2-3.1,0.2-4.7,0.2c-2.1-1.7-3.2-2.6-5.1-3.9
		c18.1-1.5,26.7-2.3,44.7-4.5c1.9,1.5,3,2.3,5.1,4C613.3,926.5,606.5,927.4,592.3,928.7L592.3,928.7z"/>
	<path id="path61" class="st4" d="M642.2,922.6c-4.3,1-6.2,4.3-5.8,9.4c0.4,4.1,1.4,8,2.8,11.9c0.8,2.6,1.7,4.9,2.3,6.8
		c0.6,1.9,0.7,3.7,1.1,5.1c0.2,1.7,0,3.4-0.6,5.1c-0.6,1.8-1.5,3.5-2.6,5.1c-1.2,1.2-2.6,2.4-4,3.4c-1.4,1-2.9,1.9-4.5,2.6
		c-1-0.4-1.9-0.9-2.8-1.5c1.6-0.7,3-1.6,4.3-2.6c1.4-0.8,2.6-2,3.4-3.4c1.2-2.4,1.6-5.1,1.1-7.7c-0.2-1.2-0.4-2.4-0.7-3.6
		c-0.6-1.5-1.1-3-2.1-5.1c-1.7-3.6-2.4-6.8-3.2-8.7c-0.9-5.8,1-11.7,5.1-16c-3,0.6-6,0.9-9,1.3l-4.1,0.6c-1-0.7-1.9-1.5-3-2.2
		c-1.1-0.7-1.7-1.1-2.4-1.7c3.8-0.6,7.5-1.1,11.7-1.7c3-0.4,6-0.6,8.8-0.9c1.8,0,3.5,0.5,5.1,1.3c0.9,0.5,1.7,1.1,2.4,1.9
		C643.9,922.2,643.3,922.2,642.2,922.6L642.2,922.6z"/>
	<path id="path63" class="st4" d="M652.3,921.6c1.1,7.2,2.4,15.5,3.5,22.7l3.6,22.6c-1.7-1.3-3.4-2.6-5.3-3.8
		c-2.1-13-2.8-19.5-4.9-32.5c-0.1-1.3-0.6-2.6-1.5-3.6c-0.8-0.9-1.6-1.8-2.5-2.6c-1.1-0.6-2.2-1.1-3.4-1.5c-1.3-0.2-2.6-0.2-3.9,0
		c-1.9-1.5-3-2.3-5.1-3.8c1.7-0.1,3.4-0.3,5.1-0.8c2.3-0.3,4.6,0,6.7,0.8c2,1.4,3.5,3.3,4.5,5.4c-0.1-1.1-0.3-2.3-0.6-3.4
		c-0.4-1.5-0.6-2.8-1.1-4.5c-0.6-1.7-0.6-3-0.8-4.5c-0.3-1-0.5-2-0.5-3c0.6,0.3,1.1,0.7,1.7,1.1c0.8,2.6,2.3,4.9,4.3,6.8l2.1-0.4
		l2.2-0.3l1.4,1.1c1.3,1,2.6,1.8,3.9,2.6l-3.6,0.5L652.3,921.6z"/>
	<path id="path65" class="st4" d="M699.6,912.4c3.6,18.4,5.7,27.4,9.2,45.7c-1.8-1.2-3.7-2.2-5.7-3c-2.1-10-2.8-15-4.9-24.8
		c-0.2-1.5-1.1-2.8-2.4-3.6c-1.3-0.8-2.9-1.1-4.4-0.9c-2.5,0.6-3.6,2.2-3,5.4c0,0.6,0.6,1.7,0.8,2.6c-0.6,0.2-1.2,0.6-1.7,1.1
		c-0.9-2.2-2.7-4-4.9-5.1c-2.3-1.1-4.8-1.5-7.3-1.1c-1.1,0.1-2.1,0.5-3,1.1c-0.8,0.6-1.7,1.5-2.6,2.2c-0.9,0.7-1.1,2.1-1.5,2.8
		c-0.2,1.1-0.2,2.2-0.2,3.4c0.6,3.6,3,5.5,7.9,5.1c-1.1-0.9-1.9-2.1-2.3-3.4c-0.3-1.4,0.1-2.8,1.1-3.8c0.8-1.1,2-1.8,3.4-1.9
		c3.4-0.8,6.8,1.4,7.6,4.8c0.1,0.2,0.1,0.5,0.1,0.7c0.1,1.6-0.3,3.2-1.1,4.5c-1.4,1.5-3.2,2.6-5.3,2.8c-1.9,0.2-3.8,0.2-5.7,0
		c-1.7-0.3-3.4-0.9-4.9-1.7c-1.3-0.9-2.5-2-3.4-3.4c-0.9-1.6-1.5-3.3-1.7-5.1c-0.5-2.9-0.1-5.9,1.1-8.6c1.1-2.9,3.7-5,6.8-5.6
		c4.2-0.6,8.5,0.9,11.5,3.9c-0.1-1.4,0.3-2.8,1.1-3.9c0.8-1.2,2-2.1,3.4-2.6c3.6-0.9,7.1,1.1,10,5.7c-0.9-4.9-1.5-7.1-2.3-11.8
		c-6.4,1.3-13,2.4-19.8,3.8l-16.2,2.8c-0.7-0.5-1.4-1.1-2.1-1.7c-0.7-0.7-1.2-1.4-1.7-2.3c11.5-1.5,19.6-3,24.8-3.9l20.5-4.1
		c0.2,0,1.7-0.4,1.9-0.4c0.9,0.6,1.7,1.1,2.6,1.7c1,0.6,1.7,1.1,2.6,1.7C705.2,911.4,702.3,911.6,699.6,912.4L699.6,912.4z"/>
	<path id="path67" class="st4" d="M741,903.8c4.5,18.4,6.8,27.3,11.3,45.7c-2.6-1.3-4.9-3.2-6.8-5.5c-2.5-2.7-5.4-4.8-8.7-6.4
		c-4.7-1.7-9.7-2.1-14.6-1.1c-3-2.6-4.7-3.8-7.9-6.2c1.9-2.8,3.9-5.4,5.8-7.9c1.6-2.4,3.4-4.6,5.4-6.6c-1.2-0.6-2.4-1-3.8-1.1
		c-1.7-0.2-3.9-0.7-6.8-1.1c-6.4-0.2-11.3-1.9-14.2-5.1c16.7-3.4,24.8-5.4,41.5-9.6c2.2,1.1,3.4,1.9,5.7,3
		C745.5,902.7,744.2,902.9,741,903.8L741,903.8z M726.8,947.3c-0.2-1.2,0.1-2.5,0.9-3.4c0.7-1,1.8-1.7,3-1.9c1.3-0.2,2.6,0,3.8,0.6
		c1.1,0.6,1.9,1.6,2.3,2.8c0.2,1.2,0,2.4-0.6,3.4c-0.7,1-1.8,1.7-3,1.9c-1.3,0.2-2.6,0-3.8-0.6c-1.5-0.2-2.6-1.4-2.7-2.8
		L726.8,947.3z M736.7,904.6c-6.8,1.7-10.3,2.6-17,3.9c2,0.8,4,1.7,5.8,2.8c2.3,1.5,5.1,3,7.9,5.1c-1.5,1.9-2.8,4.3-4.3,6.4
		c-1.5,2.1-2.8,4.5-4.3,6.8c7.6,0.5,14.8,3.7,20.3,9h0.1C741.9,925.3,740.2,918.5,736.7,904.6z"/>
	<path id="path69" class="st4" d="M307,156.7c-2.7,1.3-5.4,2.7-7.9,4.3c-3.1,2-6.1,4.1-9,6.4c-3,2.5-5.8,5.2-8.3,8.3
		c-2.6,3.2-5,6.6-7.2,10.2c-3.1,5.9-5,12.3-5.7,19c-1,7.9,0,12.8,2.6,14.2c1.7-0.5,3.4-0.9,5.1-1.1l1.1-2.8c0.3-1,0.8-2,1.3-3
		c1.1-0.8,2.4-1.5,3.8-2.5c1.3-1,2.4-1.9,3.6-2.6l-1.1,2.3c-1.3,2.6-2.4,5.3-3.6,7.7c16,7.9,24.2,11.8,40.4,19.8
		c-2.6,1.7-3.9,2.6-6.6,4.5c-14.7-6.8-22.4-10.1-36.8-16.5c-1.9,4.5-2.8,6.8-4.5,11.7c-2.8,2.4-3.9,3.6-6.8,6.2
		c2.2-7.1,4.8-14,7.7-20.8c-1.9,1.7-2.8,2.4-4.7,4.3c-1.9,1.9-3.4,2.3-4.5,1.7c-3-1.5-5.1-6.6-4.5-15c0.3-7.6,2.2-15.1,5.7-22
		c7.8-15.6,21.2-27.8,37.6-34C305.7,156.4,305.9,156.7,307,156.7L307,156.7z"/>
	<path id="path71" class="st4" d="M326.2,149.4c13,13,19.4,19.6,32.5,32.5c-2.8,0.5-4.5,0.7-7.3,1.5c-6.5-6.5-13.2-12.9-20-19.2
		c-2.5-1.4-5.5-1.9-8.3-1.1c-3.5,0.2-6.7,2-8.6,4.9c-1.1,1.5-1.9,3.2-2.5,4.9c-0.6,2.1-0.2,3.2,0.6,3.6c7.1-4.3,11.3-5.1,13-3.6
		c1.4,1.2,2.1,3.1,1.9,4.9c-0.1,2.5-0.9,5-2.3,7.1c-1.4,1.7-3,3.2-4.9,4.3c-1.7,1.1-3.7,1.6-5.7,1.1c1.6,4.3,1,9.2-1.7,13
		c-1.1,1.9-2.7,3.5-4.7,4.5c-1.5,0.8-3.2,0.8-4.7,0c-1-0.7-1.8-1.6-2.3-2.6c-0.6-1.2-1-2.6-1.1-4c-0.1-1.6-0.1-3.2,0-4.9
		c0.2-1.8,0.7-3.5,1.5-5.1c-4.7,0.9-8.8,3.9-11.1,8.1c-2.7,4.4-3.9,7.3-4.4,7.9c-1.1,0.7-2.4,1.7-3.8,2.6c-1.3,1-2.4,1.9-3.7,2.8
		c2-5.5,4.6-10.8,7.7-15.8c1.9-3.5,4.6-6.5,7.9-8.7c2.3-2,5.5-2.7,8.5-2.1c-2.4-7.2-0.9-15.1,4-20.9c2.6-2.9,6.2-4.8,10.1-5.2
		c3.2-1.1,6.6-1.4,10-0.8l0.2-0.4c-5.8-5.1-8.7-7.3-15-12.4c1.6-0.7,3.2-1.2,4.9-1.7c2.6,1.5,5.8,1.3,8.1-0.6c1.6-1,3.3-1.8,5.1-2.4
		c1.3-0.5,2.7-0.8,4.1-1C331.3,144.1,329.6,145.8,326.2,149.4L326.2,149.4z"/>
	<path id="path73" class="st4" d="M412.5,89.3c-10,3.7-19.7,8.2-28.9,13.5c1.5,2.4,2.1,3.9,3.4,6.4c1.3-1,2.8-1.9,4.3-2.6
		c4.1-2.4,8.8-3.3,13.5-2.8c3.6,0.1,6.9,2.2,8.5,5.5c0.8,2,0.8,4.2,0,6.2c-0.8,1.9-2.2,3.4-3.9,4.5c-2,1-4.2,1.6-6.4,1.7
		c-1.7,0.3-3.3-0.3-4.5-1.5c-0.7-1.1-0.7-2.5,0-3.6c0.5-1.3,1.6-2.4,3-2.8c2.4-1.3,5.3-1.5,7.9-0.6c0.2-0.9,0.2-1.9,0-2.8
		c-0.6-1.5-2.8-2.2-6.2-1.7c-2.7,0.6-5.4,1.4-7.9,2.6c-1.7,0.9-3.4,2.1-4.9,3.4c5.8,11.3,9,17,14.8,28.8c-1.1-0.3-2.2-0.6-3.4-0.8
		c-2.3-1.7-4-2.8-5.7-3.9c-1-0.8-2.2-1.5-3.4-2.1c-4-1.6-8.4-1.6-12.4-0.2c0.1,3.4-1.6,6.6-4.5,8.5c-1.5,1.3-3.5,2.1-5.5,2.1
		c-2.5,0.4-4.8-1.3-5.2-3.8c-0.2-1.2,0.1-2.5,0.9-3.5c1.2-2.5,3.2-4.4,5.7-5.7c0-0.9-0.3-1.7-0.8-2.4c-1.1-1.6-3-2.5-4.9-2.3
		c-2.3,0-4.6,0.8-6.4,2.3c-0.6,0.3-1.1,0.8-1.1,1.5c-0.2,0.7-1.1,1.5-0.9,1.7c0.5,1.6,0.7,3.2,0.6,4.9c-0.7,2.1-1.8,3.9-3.4,5.5
		c-1.6,1.6-3.7,2.6-5.9,3c-2,0.5-4.1-0.1-5.4-1.7c-1.5-1.7-0.8-4.9,1.5-8.3c0.8-1,1.7-2,2.6-2.8c0-0.2,0-0.2-0.2-0.6
		c-0.2-0.4-0.6-0.2-1.1-0.5h-1.9c-0.9,0-1.5,0.4-2.3,0.4c-0.8,0-1.5,0.2-1.7,0.6c-3,2.8-4.7,4.3-7.5,7.3c-2.8,0.5-5.6,1.3-8.3,2.2
		c22.9-24.1,50.5-43.2,81.2-56C408,88.3,410.3,88.4,412.5,89.3L412.5,89.3z M392.9,133.1c-3.4-6.2-5.1-9.2-8.5-15.6
		c-4.4,2.2-9.2,3.6-14.2,3.9c-4,0.4-8-0.8-11.1-3.4c-5.7,4.3-8.5,6.4-14.2,11.3c0.8,0.1,1.5,0.3,2.3,0.6c0.7,0.4,1.9,0.6,3.4,1.1
		c0.9-0.6,1.7-0.8,2.3-1.1s1.1-0.6,1.7-0.8c2.2-1.2,4.6-2,7.2-2.2c2.4-0.4,4.7-0.6,7.1-0.6c2.1,0.2,4.2,0.8,6.2,1.7
		c1.6,0.9,3.1,2,4.3,3.4C384,130,388.9,130.6,392.9,133.1L392.9,133.1z M381.6,112.8c-1.5-2.8-2.3-4-3.6-6.8
		c-4.9,2.8-7.2,4.3-11.3,7.1c-1,0.6-1.1,1.5-0.4,2.8c2.3,3.4,6.2,2.8,12.8-1.1c0.4-0.4,1-0.6,1.5-0.8c-0.3-0.6,0.3-0.8,0.8-1.3
		L381.6,112.8z"/>
	<path id="path75" class="st4" d="M425.6,85.1c5.4,17.5,8.2,26.5,13.8,44c-2.6-1.1-4-1.5-6.4-2.6c-4.3-12.4-6.2-18.6-10.5-31.1
		c-0.4-1.2-1.1-2.3-2.2-3c-1.2-0.9-2.5-1.4-4-1.5c-0.8-0.2-1.6-0.2-2.4-0.2c-0.9,0-1.9,0-2.8,0.2h-2.6c-0.9-0.1-1.7-0.6-2.3-1.3
		c-0.2-0.4-0.4-0.9-0.6-1.3c1.9-0.6,3.2-0.9,4.3-1.3c0.7-0.2,1.4-0.4,2.1-0.6c0.9-0.2,1.8-0.3,2.6-0.2c0.7,0.1,1.4,0.2,2.1,0.4
		c1.9,0.7,3.6,1.8,5.1,3.2c-0.4-0.8-0.6-2.1-1.1-3.2c-0.6-1.1-1.1-2.4-2.1-4.3c-0.8-1.3-1.3-2.8-1.7-4.3c-0.6-1.1-0.7-2.3-1.1-3
		c1,0.1,1.9,0.3,2.8,0.5c1.3,2.5,3.5,4.3,6.2,5.1l1.7-0.6c1.2-0.4,2.4-0.9,3.6-1.5c0.9,0.4,2.1,0.7,3.4,1.1c1.8,0.5,3.6,0.9,5.5,1.1
		c-2.8,0.8-5.5,1.7-8.3,2.6C428.8,84,427.3,84.6,425.6,85.1L425.6,85.1z"/>
	<path id="path77" class="st4" d="M501.5,74.4c-12-0.2-24,0.7-35.9,2.6c0.6,0.5,1.5,0.7,2.1,1.5c0.7,0.4,1.4,0.8,2.1,1.1
		c4.8,0.1,9.5,1.3,13.7,3.6c3.4,1.5,5.6,4.8,5.7,8.5c-0.1,3.9-2.3,7.4-5.7,9.2c-4,2.6-8.3,4.6-12.9,5.9c4.7,1.3,9.3,3.2,13.5,5.7
		c5.1,2.7,10,6,14.5,9.6c0.6,1.7,0.8,2.8,1.3,4.5c-2.6-2.5-5.5-4.6-8.7-6.4c-3.6-2.1-7.4-3.8-11.3-5.1c-4.1-1.5-8.4-2.4-12.8-2.8
		c-4.4-0.5-8.9-0.7-13.4-0.5c-3.6-3.6-5.7-5.7-9.6-9c5.9,0.6,11.9,0.5,17.8-0.4c4.2-0.4,8.3-1.6,12-3.4c4.9-2.4,7.1-5.1,6.4-7.9
		c-0.1-2-1.1-3.9-2.8-5.1c-1-0.7-2.1-1.2-3.2-1.5c-1.2-0.2-2.4-0.2-3.6-0.2c-0.6,0-1.1,0.2-1.7,0.2c-0.6,0-1.5,0.4-1.7,0.6
		c-0.4,2.3-1.4,4.5-3,6.2c-2.2,2.1-4.9,3.5-7.9,3.9c-1.8,0.2-3.6,0.2-5.5,0c-1.4-0.3-2.5-1.3-3-2.6c-0.4-2.9,0.7-5.8,3-7.8
		c2.8-2.6,6.4-4.4,10.2-5.1c0-0.7-1.7-1.7-5.1-2.8c-4.5,0.7-9.2,1.7-13.9,2.8c-1.3,0.4-2.4,0.6-3.7,0.9c-1.8,0.6-3.8,0.6-5.7,0
		c-1.2-0.4-2.3-1.1-3.2-2.1c5.4-1.7,11.6-3.4,18.2-4.9c8.2-1.8,16.5-3.2,24.8-4c1-0.1,1.9-0.3,2.8-0.6c0.9-0.3,1.9-0.5,2.8-0.7
		c2.6-0.8,3.6-1.7,3.6-2.8s-1.7-1.7-4.5-2.1c-0.8,0-2.1-0.4-3.2-0.4c-1.1-0.1-2.3,0.1-3.4,0.4c-1.4,0.1-2.9,0.2-4.3,0.6
		c-2,0.3-3.9,0.6-5.8,1.1c-2.3,0.6-4.3,0.8-6,1.1c-1.7,0.4-3,0.6-4.3,0.7c-4.9,1.2-9.9,1.4-14.9,0.8c-5.4-0.6-8.6-2.3-9.6-5.1
		c-0.1-1.2,0.2-2.4,0.9-3.4c0.8-1.7,1.7-2.6,2.8-2.6c0.3,0,0.5,0,0.7-0.2c0.2,0,0.6-0.4,1.1-0.4c-1.6,1-2.4,2.7-2.3,4.5
		c0.4,1.5,2.1,2.2,4.9,2.4c2.5,0.3,4.9,0.1,7.3-0.6c1.1-0.2,3.2-0.7,6.2-1.5c3-0.8,7.3-2.1,12.2-2.8c6.8-1.4,13.8-1.1,20.5,0.8
		c4,1,6.8,4.6,6.7,8.7c2.3,0,3.4-0.4,6-0.4C495.7,70.2,498.5,72.5,501.5,74.4z"/>
	<path id="path79" class="st4" d="M622.4,106.2c-4.5-2.6-6.8-3.9-11.3-6.2c-8.1,16.6-12.4,24.8-20.5,41.5c-0.5-0.6-1-1.2-1.5-1.7
		c1.2-7.7-1-15.5-6.2-21.2c-2.3,1.1-4.9,1.7-7.5,1.7c-3.1,0-6.2-0.6-9.2-1.7c-2-0.6-3.9-1.5-5.5-2.8c-1.9-1.3-3.6-2.7-5.2-4.3
		c-1.8-1.8-3.4-3.6-4.9-5.7c-1.4-2-2.8-4.2-3.9-6.4c-1.5-2.9-2.5-6-3-9.2c-0.7-3.6-1.1-7.2-1.1-10.9c1.3,0.6,2.5,1.3,3.8,2.1
		c0.2,3.6,1,7.2,2.4,10.5c1.1,3,2.6,5.9,4.5,8.5c1.7,2.6,3.8,4.8,6.2,6.8c2.2,2,4.9,3.5,7.7,4.3c6.8,2.3,11.8,2.4,15,0.6
		c2-1.1,3.6-2.9,4.5-5.1c0.4-0.7,0.6-1.5,0.6-2.3c-0.1-1.5-0.3-2.9-0.8-4.3c-0.4-1.3-1.1-2.5-2.1-3.4c-0.9-1.2-2-2.2-3.4-2.8
		c-1.1-0.6-2.6-0.7-3.6-1.1c0.7,1.2,1,2.6,0.7,4c-0.5,0.9-1.2,1.7-2.1,2.2c-1.3,0.5-2.6,0.9-3.9,1.1c-2.6,0.3-5.3,0-7.7-1.1
		c-2.3-0.8-4.3-2.4-5.7-4.5c-0.5-1.1-0.6-2.2-0.4-3.4c0.4-1.2,1.2-2.3,2.3-3c1.3-0.9,2.8-1.5,4.3-1.7c3.8-0.5,7.6-0.3,11.3,0.7
		c1.7,0.6,3.4,1.5,5.1,2.3c2.2,1.4,4.2,3.1,6,5.1c1.7,1.9,3,4.1,4,6.4c1.1,2.9,0.9,6.2-0.6,9c-1,2.1-2.3,4-4,5.7
		c2,2.7,3.8,5.5,5.4,8.4c5.1-11.1,7.5-16.4,12.8-27.4C580.4,84.9,567.7,81,541,76.4c-1.9-2-4-3.8-6.2-5.5
		c29.4,3.9,57.7,13.5,83.5,28.1C619.8,101.4,621.2,103.7,622.4,106.2L622.4,106.2z M632.5,112.8c-10,15.6-14.7,23.3-24.2,38.9
		c-0.8-2.8-1.5-4-2.3-6.8c6.4-11.3,10-17,16.5-28.3c0.6-1.2,0.9-2.6,0.9-3.9c-0.1-1.6-0.6-3.1-1.5-4.3c-0.9-1.5-2.1-2.8-3.4-3.9
		c-1.5-1.4-3.1-2.5-4.9-3.4c-1.7-2.8-2.4-4.3-4.3-7.1c2.8,1.5,4.3,2.3,7.1,3.6c3,1.7,5.7,3.8,7.9,6.4c1.5,2.3,2.1,5.2,1.7,7.9
		c0.5-1,1.1-1.9,1.7-2.8c0.6-1.1,1.1-2.4,2.1-4.3c0.9-1.9,1.5-2.8,2.1-4.3c0.6-1.5,1.1-2.1,1.5-2.8c0.4,0.9,0.9,1.8,1.5,2.6
		c-1,2.6-0.9,5.5,0.2,8.1c1.7,1.3,3.5,2.6,5.3,3.7c1.2,2.5,2.2,5.1,3,7.7C639.3,117.3,637,115.6,632.5,112.8z"/>
	<path id="path81" class="st4" d="M675.5,149.6c-3.8-3.1-7.9-5.5-12.4-7.3c-3.6-1.4-7.5-2.1-11.3-2.1c-3.1,0.3-6.2,1.1-9,2.4
		c-2.8,1.7-5.3,3.9-7.3,6.4c-1.9,2.6-2.7,5.8-2.4,9c0.6,5.7,2.3,9.2,5.3,11.3c-0.5-1.1-0.7-2.3-0.6-3.6c0-1,0.4-1.9,1.1-2.5
		c0.9-1.2,2.6-1.5,3.9-0.7c1.8,0.5,3.5,1.3,4.9,2.4c1.4,1.3,2.2,3.1,2.4,5.1c0.4,1.8-0.2,3.7-1.7,4.9c-0.8,0.7-1.7,1.2-2.6,1.5
		c-1,0.4-2,0.4-3,0c-1.2-0.3-2.4-0.8-3.4-1.5c-1.2-0.7-2.4-1.5-3.4-2.4c-4.8-4.3-7.4-10.5-7.1-16.9c0-5.3,1.7-10.4,4.9-14.7
		c4.5-6.2,12.8-9.6,24.8-8.5c-3.2-2.8-6.6-5.7-10.3-8.8c-2.8-2.2-5.5-4.3-8.3-6.2c0-0.7,0.2-1.7,0.2-2.4v-2.8
		c5.9,4.1,11.6,8.5,17,13.3c6,5.4,11.7,11.3,17,17.5c0,0.8,0.2,1.5,0.2,2.3C674.9,146.7,675.3,148.1,675.5,149.6L675.5,149.6z"/>
	<path id="path83" class="st4" d="M712.6,201.8c-15.8,9-23.7,13.9-39.5,22.6c0.2-3,0.2-4.7,0.2-7.9c8.5-5.5,12.8-7.9,20.9-13
		c1.5-0.8,2.1-2.3,2.1-4.5c0-2.3-0.7-4.6-2-6.6c-2.2-3.6-4.5-4.5-7.1-2.4c-0.6,0.2-1.1,1.1-2.1,2.1c-0.8-0.6-1.6-1.3-2.3-2.1
		c1.6-2.4,2.1-5.4,1.5-8.3c-0.6-3.6-2.2-7.1-4.5-10c-1-1.3-2.2-2.4-3.6-3.4c-1.2-0.8-2.5-1.5-3.9-2.1c-1.2-0.5-2.5-0.6-3.8-0.2
		c-1.2,0.1-2.2,0.6-3,1.5c-2.6,2.4-2.1,6.2,1.7,11.3c0.4-2.1,0.6-3.4,1.5-3.9c1.2-0.7,2.7-0.9,4-0.4c1.8,0.7,3.3,1.9,4.5,3.4
		c3.8,5.1,3.8,9.2,0.6,11.6c-1.5,0.9-3.5,1-5.1,0.2c-2.4-1.2-4.5-2.9-6.2-5.1c-1.7-2.3-3-4.5-4.3-6.4c-1-2-1.7-4-2.1-6.2
		c-0.3-1.9-0.2-3.8,0.4-5.7c0.6-1.7,1.5-3.4,2.5-4.9c2.3-2.2,5.4-3.2,8.5-2.8c4.3,0.4,8.2,2.7,10.7,6.2c3.9,4.8,5.9,10.8,5.7,17
		c1.1-0.7,2.4-0.7,4.7,0.4c2,0.8,3.7,2.2,4.9,4c3.3,4.6,3.7,10.7,1.1,15.8c4-2.6,5.8-3.6,10.2-6.2c-9.7-18-22-34.5-36.5-49
		c-0.8-3.4-1.5-5.1-2.3-8.5c20.3,19.6,36.9,42.7,49,68.2c0,3.6,0,5.7-0.2,9.2C717,211,715,206.4,712.6,201.8L712.6,201.8z"/>
	<path id="path85" class="st4" d="M724.6,229.1c-13.7,5.9-27.5,11.8-41.2,17.8c0.6-3.2,0.7-4.5,1.5-7.9c11.3-5.2,17-8.1,28.8-13.5
		c1.2-0.7,2.1-1.7,2.8-2.8c0.6-1.6,0.8-3.2,0.8-4.9c-0.1-2-0.3-3.9-0.8-5.8c-0.5-2.5-1.3-4.9-2.4-7.2c0-2.8-0.2-5.4-0.2-8.3
		c0.4,0.8,1.1,1.7,1.9,2.8c0.8,1.1,1.7,2.8,2.8,5.3c2,3.3,3.1,7,3.4,10.9c0,3-0.9,6-2.6,8.5c1-0.4,1.9-0.9,2.8-1.5
		c1.1-0.6,2.5-1.5,4-2.4c1.5-0.9,2.8-1.7,3.9-2.3c1.1-0.6,1.9-1.1,2.8-1.5v3.4c-2.3,1.8-3.8,4.5-4,7.5c1.1,2.8,1.7,4.3,2.6,7.2
		c-0.6,3.7-0.9,5.7-1.5,9.4C728,237.5,726.8,234.7,724.6,229.1L724.6,229.1z"/>
</g>
</svg>
